# xmcd
#
# Track frame offsets: 
#        150
#        16282
#        40207
#        60377
#        81502
#        105325
#        121940
#        139477
#        152387
#        167520
#        187762
#        204467
#
# Disc length: 2931 seconds
#
# Revision: 0
# Processed by: cddbd v1.5.2PL0 Copyright (c) Steve Scherf et al.
# Submitted via: ExactAudioCopyFreeDBPlugin 1.0
#
DISCID=8f0b710c
DTITLE=Квартал - Всё земное стало странным (МинкульТ, MTCD 1-0002)
DYEAR=1999
DGENRE=Jazz Rock - Art Rock - Blues
TTITLE0=Всё земное стало странным
TTITLE1=Жираф
TTITLE2=Белый дельфин
TTITLE3=Плакать не надо
TTITLE4=Колибри
TTITLE5=Русский Париж
TTITLE6=Не забывай меня
TTITLE7=Осенний бит
TTITLE8=Малышка
TTITLE9=Парамарибо
TTITLE10=Девочка-Америка
TTITLE11=Ночной трамвай 
EXTD=\nRip by ley-barmaley\nhttp://lossless-galaxy.ru
EXTT0=
EXTT1=
EXTT2=
EXTT3=
EXTT4=
EXTT5=
EXTT6=
EXTT7=
EXTT8=
EXTT9=
EXTT10=
EXTT11=
PLAYORDER=
